<svg xmlns="http://www.w3.org/2000/svg" xmlns:xlink="http://www.w3.org/1999/xlink" width="30" height="30" viewBox="0 0 30 30">
  <defs>
    <linearGradient id="linear-gradient" x1="0.5" x2="0.5" y2="1" gradientUnits="objectBoundingBox">
      <stop offset="0" stop-color="#72c361"/>
      <stop offset="1" stop-color="#4fb980"/>
    </linearGradient>
    <clipPath id="clip-path">
      <rect id="Rectangle_102" data-name="Rectangle 102" width="12.697" height="14.631" fill="#fff"/>
    </clipPath>
  </defs>
  <g id="Group_93" data-name="Group 93" transform="translate(-1308.667 -3017.667)">
    <circle id="Ellipse_4" data-name="Ellipse 4" cx="15" cy="15" r="15" transform="translate(1308.667 3017.667)" fill="url(#linear-gradient)"/>
    <g id="Group_89" data-name="Group 89" transform="translate(1317.905 3025.351)">
      <g id="Group_88" data-name="Group 88" clip-path="url(#clip-path)">
        <path id="Path_123" data-name="Path 123" d="M1.925,2.31H9.241V1.54A1.54,1.54,0,0,0,7.7,0H1.54A1.54,1.54,0,0,0,0,1.54V13.091a1.54,1.54,0,0,0,1.54,1.54H7.7a1.54,1.54,0,0,0,1.54-1.54V11.166H1.925a.385.385,0,0,1-.385-.385V2.7a.385.385,0,0,1,.385-.385M4.962,13.669h-.77a.77.77,0,1,1,0-1.54h.77a.77.77,0,1,1,0,1.54" fill="#fff"/>
        <path id="Path_124" data-name="Path 124" d="M16.246,8.467H7.792a.77.77,0,0,0-.77.77v5.4a.77.77,0,0,0,.77.77h8.454a.77.77,0,0,0,.77-.77v-5.4a.77.77,0,0,0-.77-.77M9.5,9.388a.767.767,0,1,1-.767.767A.767.767,0,0,1,9.5,9.388m.614,4.624H9.2a.481.481,0,0,1,0-.963h.921a.481.481,0,0,1,0,.963m2.455,0h-.921a.481.481,0,0,1,0-.963h.921a.481.481,0,0,1,0,.963m2.726,0H14.107a.481.481,0,0,1,0-.963H15.3a.481.481,0,1,1,0,.963m0-3.376H11.653a.481.481,0,1,1,0-.963H15.3a.481.481,0,1,1,0,.963" transform="translate(-4.318 -5.207)" fill="#fff"/>
      </g>
    </g>
  </g>
</svg>
